<mxfile host="Electron" modified="2023-10-12T04:09:25.327Z" agent="Mozilla/5.0 (Windows NT 10.0; Win64; x64) AppleWebKit/537.36 (KHTML, like Gecko) draw.io/21.6.8 Chrome/114.0.5735.289 Electron/25.5.0 Safari/537.36" etag="LNhauQeFsUY2ebG3_aPx" version="21.6.8" type="device" pages="3">
  <diagram id="C5RBs43oDa-KdzZeNtuy" name="shaker">
    <mxGraphModel dx="1843" dy="899" grid="1" gridSize="10" guides="1" tooltips="1" connect="1" arrows="1" fold="1" page="1" pageScale="1" pageWidth="827" pageHeight="1169" math="0" shadow="0">
      <root>
        <mxCell id="WIyWlLk6GJQsqaUBKTNV-0" />
        <mxCell id="WIyWlLk6GJQsqaUBKTNV-1" parent="WIyWlLk6GJQsqaUBKTNV-0" />
        <mxCell id="uiurrD50j5xwAEIMeoPP-0" style="edgeStyle=orthogonalEdgeStyle;rounded=0;orthogonalLoop=1;jettySize=auto;html=1;exitX=0.5;exitY=0.5;exitDx=0;exitDy=20;exitPerimeter=0;entryX=0.5;entryY=0;entryDx=0;entryDy=0;" parent="WIyWlLk6GJQsqaUBKTNV-1" source="uiurrD50j5xwAEIMeoPP-1" edge="1">
          <mxGeometry relative="1" as="geometry">
            <mxPoint x="180" y="130" as="targetPoint" />
          </mxGeometry>
        </mxCell>
        <mxCell id="uiurrD50j5xwAEIMeoPP-1" value="Начало" style="html=1;dashed=0;whiteSpace=wrap;shape=mxgraph.dfd.start" parent="WIyWlLk6GJQsqaUBKTNV-1" vertex="1">
          <mxGeometry x="120" y="65" width="120" height="40" as="geometry" />
        </mxCell>
        <mxCell id="uiurrD50j5xwAEIMeoPP-3" value="" style="strokeWidth=1;html=1;shape=mxgraph.flowchart.annotation_2;align=left;labelPosition=right;pointerEvents=1;" parent="WIyWlLk6GJQsqaUBKTNV-1" vertex="1">
          <mxGeometry x="249" y="45" width="19" height="80" as="geometry" />
        </mxCell>
        <mxCell id="uiurrD50j5xwAEIMeoPP-4" value="" style="endArrow=none;dashed=1;html=1;rounded=0;entryX=0;entryY=0.5;entryDx=0;entryDy=0;entryPerimeter=0;" parent="WIyWlLk6GJQsqaUBKTNV-1" target="uiurrD50j5xwAEIMeoPP-3" edge="1">
          <mxGeometry width="50" height="50" relative="1" as="geometry">
            <mxPoint x="239" y="85" as="sourcePoint" />
            <mxPoint x="249" y="85" as="targetPoint" />
          </mxGeometry>
        </mxCell>
        <mxCell id="uiurrD50j5xwAEIMeoPP-22" style="edgeStyle=orthogonalEdgeStyle;rounded=0;orthogonalLoop=1;jettySize=auto;html=1;exitX=0.5;exitY=1;exitDx=0;exitDy=0;entryX=0.5;entryY=0;entryDx=0;entryDy=0;" parent="WIyWlLk6GJQsqaUBKTNV-1" source="uiurrD50j5xwAEIMeoPP-5" target="uiurrD50j5xwAEIMeoPP-6" edge="1">
          <mxGeometry relative="1" as="geometry" />
        </mxCell>
        <mxCell id="uiurrD50j5xwAEIMeoPP-5" value="Определить&lt;br&gt;границы массива&lt;br&gt;left, right" style="rounded=0;whiteSpace=wrap;html=1;" parent="WIyWlLk6GJQsqaUBKTNV-1" vertex="1">
          <mxGeometry x="120" y="130" width="120" height="60" as="geometry" />
        </mxCell>
        <mxCell id="uiurrD50j5xwAEIMeoPP-21" style="edgeStyle=orthogonalEdgeStyle;rounded=0;orthogonalLoop=1;jettySize=auto;html=1;exitX=0.5;exitY=1;exitDx=0;exitDy=0;entryX=0.5;entryY=0;entryDx=0;entryDy=0;" parent="WIyWlLk6GJQsqaUBKTNV-1" source="uiurrD50j5xwAEIMeoPP-6" target="uiurrD50j5xwAEIMeoPP-8" edge="1">
          <mxGeometry relative="1" as="geometry" />
        </mxCell>
        <mxCell id="uiurrD50j5xwAEIMeoPP-6" value="Определить&lt;br&gt;флаг, буффер&lt;br&gt;flag, buf" style="rounded=0;whiteSpace=wrap;html=1;" parent="WIyWlLk6GJQsqaUBKTNV-1" vertex="1">
          <mxGeometry x="120" y="220" width="120" height="60" as="geometry" />
        </mxCell>
        <mxCell id="uiurrD50j5xwAEIMeoPP-20" style="edgeStyle=orthogonalEdgeStyle;rounded=0;orthogonalLoop=1;jettySize=auto;html=1;exitX=0.5;exitY=1;exitDx=0;exitDy=0;entryX=0.5;entryY=0;entryDx=0;entryDy=0;" parent="WIyWlLk6GJQsqaUBKTNV-1" source="uiurrD50j5xwAEIMeoPP-8" target="uiurrD50j5xwAEIMeoPP-11" edge="1">
          <mxGeometry relative="1" as="geometry" />
        </mxCell>
        <mxCell id="uiurrD50j5xwAEIMeoPP-8" value="while&lt;br&gt;(left &amp;lt; right) and &lt;br&gt;flag &amp;gt; 0" style="shape=loopLimit;whiteSpace=wrap;html=1;" parent="WIyWlLk6GJQsqaUBKTNV-1" vertex="1">
          <mxGeometry x="120" y="310" width="120" height="60" as="geometry" />
        </mxCell>
        <mxCell id="czHa0PA_GMguQkWzGNW3-1" style="edgeStyle=orthogonalEdgeStyle;rounded=0;orthogonalLoop=1;jettySize=auto;html=1;exitX=0.5;exitY=0;exitDx=0;exitDy=0;entryX=0.5;entryY=0;entryDx=0;entryDy=0;" parent="WIyWlLk6GJQsqaUBKTNV-1" source="uiurrD50j5xwAEIMeoPP-9" target="uiurrD50j5xwAEIMeoPP-23" edge="1">
          <mxGeometry relative="1" as="geometry" />
        </mxCell>
        <mxCell id="uiurrD50j5xwAEIMeoPP-9" value="" style="shape=loopLimit;whiteSpace=wrap;html=1;size=20;rotation=-180;" parent="WIyWlLk6GJQsqaUBKTNV-1" vertex="1">
          <mxGeometry x="119" y="870" width="120" height="60" as="geometry" />
        </mxCell>
        <mxCell id="uiurrD50j5xwAEIMeoPP-19" style="edgeStyle=orthogonalEdgeStyle;rounded=0;orthogonalLoop=1;jettySize=auto;html=1;exitX=0.5;exitY=1;exitDx=0;exitDy=0;entryX=0.5;entryY=0;entryDx=0;entryDy=0;" parent="WIyWlLk6GJQsqaUBKTNV-1" source="uiurrD50j5xwAEIMeoPP-11" target="uiurrD50j5xwAEIMeoPP-12" edge="1">
          <mxGeometry relative="1" as="geometry" />
        </mxCell>
        <mxCell id="uiurrD50j5xwAEIMeoPP-11" value="flag = 0" style="rounded=0;whiteSpace=wrap;html=1;" parent="WIyWlLk6GJQsqaUBKTNV-1" vertex="1">
          <mxGeometry x="120" y="400" width="120" height="60" as="geometry" />
        </mxCell>
        <mxCell id="uiurrD50j5xwAEIMeoPP-18" style="edgeStyle=orthogonalEdgeStyle;rounded=0;orthogonalLoop=1;jettySize=auto;html=1;exitX=0.5;exitY=1;exitDx=0;exitDy=0;entryX=0.5;entryY=0;entryDx=0;entryDy=0;" parent="WIyWlLk6GJQsqaUBKTNV-1" source="uiurrD50j5xwAEIMeoPP-12" target="uiurrD50j5xwAEIMeoPP-13" edge="1">
          <mxGeometry relative="1" as="geometry" />
        </mxCell>
        <mxCell id="uiurrD50j5xwAEIMeoPP-12" value="i = left ... right - 1" style="shape=loopLimit;whiteSpace=wrap;html=1;" parent="WIyWlLk6GJQsqaUBKTNV-1" vertex="1">
          <mxGeometry x="120" y="490" width="120" height="60" as="geometry" />
        </mxCell>
        <mxCell id="uiurrD50j5xwAEIMeoPP-16" style="edgeStyle=orthogonalEdgeStyle;rounded=0;orthogonalLoop=1;jettySize=auto;html=1;exitX=1;exitY=0.5;exitDx=0;exitDy=0;entryX=0.5;entryY=0;entryDx=0;entryDy=0;" parent="WIyWlLk6GJQsqaUBKTNV-1" source="uiurrD50j5xwAEIMeoPP-13" target="uiurrD50j5xwAEIMeoPP-14" edge="1">
          <mxGeometry relative="1" as="geometry" />
        </mxCell>
        <mxCell id="uiurrD50j5xwAEIMeoPP-26" style="edgeStyle=orthogonalEdgeStyle;rounded=0;orthogonalLoop=1;jettySize=auto;html=1;exitX=0;exitY=0.5;exitDx=0;exitDy=0;" parent="WIyWlLk6GJQsqaUBKTNV-1" source="uiurrD50j5xwAEIMeoPP-13" edge="1">
          <mxGeometry relative="1" as="geometry">
            <Array as="points">
              <mxPoint x="60" y="620" />
              <mxPoint x="60" y="840" />
              <mxPoint x="180" y="840" />
            </Array>
            <mxPoint x="180" y="870" as="targetPoint" />
          </mxGeometry>
        </mxCell>
        <mxCell id="uiurrD50j5xwAEIMeoPP-13" value="to_sort[i] &amp;gt;&amp;nbsp;&lt;br&gt;to_sort[ i + 1 ]" style="rhombus;whiteSpace=wrap;html=1;" parent="WIyWlLk6GJQsqaUBKTNV-1" vertex="1">
          <mxGeometry x="120" y="580" width="120" height="80" as="geometry" />
        </mxCell>
        <mxCell id="uiurrD50j5xwAEIMeoPP-17" style="edgeStyle=orthogonalEdgeStyle;rounded=0;orthogonalLoop=1;jettySize=auto;html=1;exitX=0.5;exitY=1;exitDx=0;exitDy=0;entryX=0.5;entryY=0;entryDx=0;entryDy=0;" parent="WIyWlLk6GJQsqaUBKTNV-1" source="uiurrD50j5xwAEIMeoPP-14" target="uiurrD50j5xwAEIMeoPP-15" edge="1">
          <mxGeometry relative="1" as="geometry" />
        </mxCell>
        <mxCell id="uiurrD50j5xwAEIMeoPP-14" value="Обмен переменных&amp;nbsp;&lt;br&gt;to_sort[ i ] и&lt;br&gt;to_sort[ i + 1]" style="rounded=0;whiteSpace=wrap;html=1;" parent="WIyWlLk6GJQsqaUBKTNV-1" vertex="1">
          <mxGeometry x="239" y="680" width="120" height="60" as="geometry" />
        </mxCell>
        <mxCell id="uiurrD50j5xwAEIMeoPP-24" style="edgeStyle=orthogonalEdgeStyle;rounded=0;orthogonalLoop=1;jettySize=auto;html=1;exitX=0.5;exitY=1;exitDx=0;exitDy=0;entryX=0.5;entryY=1;entryDx=0;entryDy=0;" parent="WIyWlLk6GJQsqaUBKTNV-1" source="uiurrD50j5xwAEIMeoPP-15" target="uiurrD50j5xwAEIMeoPP-9" edge="1">
          <mxGeometry relative="1" as="geometry">
            <Array as="points">
              <mxPoint x="299" y="840" />
              <mxPoint x="180" y="840" />
              <mxPoint x="180" y="870" />
            </Array>
            <mxPoint x="190" y="850" as="targetPoint" />
          </mxGeometry>
        </mxCell>
        <mxCell id="uiurrD50j5xwAEIMeoPP-15" value="flag = 1" style="rounded=0;whiteSpace=wrap;html=1;" parent="WIyWlLk6GJQsqaUBKTNV-1" vertex="1">
          <mxGeometry x="239" y="770" width="120" height="60" as="geometry" />
        </mxCell>
        <mxCell id="uiurrD50j5xwAEIMeoPP-23" value="A" style="ellipse;whiteSpace=wrap;html=1;" parent="WIyWlLk6GJQsqaUBKTNV-1" vertex="1">
          <mxGeometry x="145" y="960" width="70" height="70" as="geometry" />
        </mxCell>
        <mxCell id="uiurrD50j5xwAEIMeoPP-30" style="edgeStyle=orthogonalEdgeStyle;rounded=0;orthogonalLoop=1;jettySize=auto;html=1;exitX=0.5;exitY=1;exitDx=0;exitDy=0;entryX=0.5;entryY=0;entryDx=0;entryDy=0;" parent="WIyWlLk6GJQsqaUBKTNV-1" source="uiurrD50j5xwAEIMeoPP-27" target="uiurrD50j5xwAEIMeoPP-29" edge="1">
          <mxGeometry relative="1" as="geometry" />
        </mxCell>
        <mxCell id="uiurrD50j5xwAEIMeoPP-27" value="A" style="ellipse;whiteSpace=wrap;html=1;" parent="WIyWlLk6GJQsqaUBKTNV-1" vertex="1">
          <mxGeometry x="524" y="70" width="70" height="70" as="geometry" />
        </mxCell>
        <mxCell id="uiurrD50j5xwAEIMeoPP-28" value="Да" style="text;html=1;strokeColor=none;fillColor=none;align=center;verticalAlign=middle;whiteSpace=wrap;rounded=0;" parent="WIyWlLk6GJQsqaUBKTNV-1" vertex="1">
          <mxGeometry x="249" y="590" width="60" height="30" as="geometry" />
        </mxCell>
        <mxCell id="czHa0PA_GMguQkWzGNW3-15" style="edgeStyle=orthogonalEdgeStyle;rounded=0;orthogonalLoop=1;jettySize=auto;html=1;exitX=0.5;exitY=1;exitDx=0;exitDy=0;entryX=0.5;entryY=0;entryDx=0;entryDy=0;" parent="WIyWlLk6GJQsqaUBKTNV-1" source="uiurrD50j5xwAEIMeoPP-29" target="czHa0PA_GMguQkWzGNW3-5" edge="1">
          <mxGeometry relative="1" as="geometry" />
        </mxCell>
        <mxCell id="uiurrD50j5xwAEIMeoPP-29" value="Декремент right" style="rounded=0;whiteSpace=wrap;html=1;" parent="WIyWlLk6GJQsqaUBKTNV-1" vertex="1">
          <mxGeometry x="499" y="170" width="120" height="60" as="geometry" />
        </mxCell>
        <mxCell id="uiurrD50j5xwAEIMeoPP-31" value="to_sort[ ]&lt;br&gt;c - длина массива" style="text;html=1;strokeColor=none;fillColor=none;align=left;verticalAlign=middle;whiteSpace=wrap;rounded=0;" parent="WIyWlLk6GJQsqaUBKTNV-1" vertex="1">
          <mxGeometry x="259" y="70" width="131" height="30" as="geometry" />
        </mxCell>
        <mxCell id="czHa0PA_GMguQkWzGNW3-2" value="i++" style="text;html=1;strokeColor=none;fillColor=none;align=center;verticalAlign=middle;whiteSpace=wrap;rounded=0;" parent="WIyWlLk6GJQsqaUBKTNV-1" vertex="1">
          <mxGeometry x="149" y="885" width="60" height="30" as="geometry" />
        </mxCell>
        <mxCell id="czHa0PA_GMguQkWzGNW3-17" style="edgeStyle=orthogonalEdgeStyle;rounded=0;orthogonalLoop=1;jettySize=auto;html=1;exitX=0.5;exitY=0;exitDx=0;exitDy=0;entryX=0.5;entryY=0;entryDx=0;entryDy=0;" parent="WIyWlLk6GJQsqaUBKTNV-1" source="czHa0PA_GMguQkWzGNW3-3" target="czHa0PA_GMguQkWzGNW3-16" edge="1">
          <mxGeometry relative="1" as="geometry" />
        </mxCell>
        <mxCell id="czHa0PA_GMguQkWzGNW3-3" value="" style="shape=loopLimit;whiteSpace=wrap;html=1;size=20;rotation=-180;" parent="WIyWlLk6GJQsqaUBKTNV-1" vertex="1">
          <mxGeometry x="499" y="640" width="120" height="60" as="geometry" />
        </mxCell>
        <mxCell id="czHa0PA_GMguQkWzGNW3-4" style="edgeStyle=orthogonalEdgeStyle;rounded=0;orthogonalLoop=1;jettySize=auto;html=1;exitX=0.5;exitY=1;exitDx=0;exitDy=0;entryX=0.5;entryY=0;entryDx=0;entryDy=0;" parent="WIyWlLk6GJQsqaUBKTNV-1" source="czHa0PA_GMguQkWzGNW3-5" target="czHa0PA_GMguQkWzGNW3-8" edge="1">
          <mxGeometry relative="1" as="geometry" />
        </mxCell>
        <mxCell id="czHa0PA_GMguQkWzGNW3-5" value="i = right&lt;br&gt;&amp;nbsp;... left - 1" style="shape=loopLimit;whiteSpace=wrap;html=1;" parent="WIyWlLk6GJQsqaUBKTNV-1" vertex="1">
          <mxGeometry x="500" y="260" width="120" height="60" as="geometry" />
        </mxCell>
        <mxCell id="czHa0PA_GMguQkWzGNW3-6" style="edgeStyle=orthogonalEdgeStyle;rounded=0;orthogonalLoop=1;jettySize=auto;html=1;exitX=1;exitY=0.5;exitDx=0;exitDy=0;entryX=0.5;entryY=0;entryDx=0;entryDy=0;" parent="WIyWlLk6GJQsqaUBKTNV-1" source="czHa0PA_GMguQkWzGNW3-8" target="czHa0PA_GMguQkWzGNW3-10" edge="1">
          <mxGeometry relative="1" as="geometry" />
        </mxCell>
        <mxCell id="czHa0PA_GMguQkWzGNW3-7" style="edgeStyle=orthogonalEdgeStyle;rounded=0;orthogonalLoop=1;jettySize=auto;html=1;exitX=0;exitY=0.5;exitDx=0;exitDy=0;" parent="WIyWlLk6GJQsqaUBKTNV-1" source="czHa0PA_GMguQkWzGNW3-8" edge="1">
          <mxGeometry relative="1" as="geometry">
            <Array as="points">
              <mxPoint x="440" y="390" />
              <mxPoint x="440" y="610" />
              <mxPoint x="560" y="610" />
            </Array>
            <mxPoint x="560" y="640" as="targetPoint" />
          </mxGeometry>
        </mxCell>
        <mxCell id="czHa0PA_GMguQkWzGNW3-8" value="to_sort[i] &amp;gt;&amp;nbsp;&lt;br&gt;to_sort[ i + 1 ]" style="rhombus;whiteSpace=wrap;html=1;" parent="WIyWlLk6GJQsqaUBKTNV-1" vertex="1">
          <mxGeometry x="500" y="350" width="120" height="80" as="geometry" />
        </mxCell>
        <mxCell id="czHa0PA_GMguQkWzGNW3-9" style="edgeStyle=orthogonalEdgeStyle;rounded=0;orthogonalLoop=1;jettySize=auto;html=1;exitX=0.5;exitY=1;exitDx=0;exitDy=0;entryX=0.5;entryY=0;entryDx=0;entryDy=0;" parent="WIyWlLk6GJQsqaUBKTNV-1" source="czHa0PA_GMguQkWzGNW3-10" target="czHa0PA_GMguQkWzGNW3-12" edge="1">
          <mxGeometry relative="1" as="geometry" />
        </mxCell>
        <mxCell id="czHa0PA_GMguQkWzGNW3-10" value="Обмен переменных&amp;nbsp;&lt;br&gt;to_sort[ i ] и&lt;br&gt;to_sort[ i + 1]" style="rounded=0;whiteSpace=wrap;html=1;" parent="WIyWlLk6GJQsqaUBKTNV-1" vertex="1">
          <mxGeometry x="619" y="450" width="120" height="60" as="geometry" />
        </mxCell>
        <mxCell id="czHa0PA_GMguQkWzGNW3-11" style="edgeStyle=orthogonalEdgeStyle;rounded=0;orthogonalLoop=1;jettySize=auto;html=1;exitX=0.5;exitY=1;exitDx=0;exitDy=0;entryX=0.5;entryY=1;entryDx=0;entryDy=0;" parent="WIyWlLk6GJQsqaUBKTNV-1" source="czHa0PA_GMguQkWzGNW3-12" target="czHa0PA_GMguQkWzGNW3-3" edge="1">
          <mxGeometry relative="1" as="geometry">
            <Array as="points">
              <mxPoint x="679" y="610" />
              <mxPoint x="560" y="610" />
              <mxPoint x="560" y="640" />
            </Array>
            <mxPoint x="570" y="620" as="targetPoint" />
          </mxGeometry>
        </mxCell>
        <mxCell id="czHa0PA_GMguQkWzGNW3-12" value="flag = 1" style="rounded=0;whiteSpace=wrap;html=1;" parent="WIyWlLk6GJQsqaUBKTNV-1" vertex="1">
          <mxGeometry x="619" y="540" width="120" height="60" as="geometry" />
        </mxCell>
        <mxCell id="czHa0PA_GMguQkWzGNW3-13" value="Да" style="text;html=1;strokeColor=none;fillColor=none;align=center;verticalAlign=middle;whiteSpace=wrap;rounded=0;" parent="WIyWlLk6GJQsqaUBKTNV-1" vertex="1">
          <mxGeometry x="629" y="360" width="60" height="30" as="geometry" />
        </mxCell>
        <mxCell id="czHa0PA_GMguQkWzGNW3-14" value="i--" style="text;html=1;strokeColor=none;fillColor=none;align=center;verticalAlign=middle;whiteSpace=wrap;rounded=0;" parent="WIyWlLk6GJQsqaUBKTNV-1" vertex="1">
          <mxGeometry x="529" y="655" width="60" height="30" as="geometry" />
        </mxCell>
        <mxCell id="czHa0PA_GMguQkWzGNW3-21" style="edgeStyle=orthogonalEdgeStyle;rounded=0;orthogonalLoop=1;jettySize=auto;html=1;exitX=0.5;exitY=1;exitDx=0;exitDy=0;entryX=0.5;entryY=1;entryDx=0;entryDy=0;" parent="WIyWlLk6GJQsqaUBKTNV-1" source="czHa0PA_GMguQkWzGNW3-16" target="czHa0PA_GMguQkWzGNW3-19" edge="1">
          <mxGeometry relative="1" as="geometry" />
        </mxCell>
        <mxCell id="czHa0PA_GMguQkWzGNW3-16" value="Инкремент left" style="rounded=0;whiteSpace=wrap;html=1;" parent="WIyWlLk6GJQsqaUBKTNV-1" vertex="1">
          <mxGeometry x="500" y="730" width="120" height="60" as="geometry" />
        </mxCell>
        <mxCell id="czHa0PA_GMguQkWzGNW3-18" value="Конец" style="html=1;dashed=0;whiteSpace=wrap;shape=mxgraph.dfd.start" parent="WIyWlLk6GJQsqaUBKTNV-1" vertex="1">
          <mxGeometry x="499" y="915" width="120" height="40" as="geometry" />
        </mxCell>
        <mxCell id="czHa0PA_GMguQkWzGNW3-22" style="edgeStyle=orthogonalEdgeStyle;rounded=0;orthogonalLoop=1;jettySize=auto;html=1;exitX=0.5;exitY=0;exitDx=0;exitDy=0;entryX=0.5;entryY=0.5;entryDx=0;entryDy=-20;entryPerimeter=0;" parent="WIyWlLk6GJQsqaUBKTNV-1" source="czHa0PA_GMguQkWzGNW3-19" target="czHa0PA_GMguQkWzGNW3-18" edge="1">
          <mxGeometry relative="1" as="geometry" />
        </mxCell>
        <mxCell id="czHa0PA_GMguQkWzGNW3-19" value="" style="shape=loopLimit;whiteSpace=wrap;html=1;size=20;rotation=-180;" parent="WIyWlLk6GJQsqaUBKTNV-1" vertex="1">
          <mxGeometry x="499" y="825" width="120" height="60" as="geometry" />
        </mxCell>
        <mxCell id="czHa0PA_GMguQkWzGNW3-20" value="do" style="text;html=1;strokeColor=none;fillColor=none;align=center;verticalAlign=middle;whiteSpace=wrap;rounded=0;" parent="WIyWlLk6GJQsqaUBKTNV-1" vertex="1">
          <mxGeometry x="529" y="840" width="60" height="30" as="geometry" />
        </mxCell>
      </root>
    </mxGraphModel>
  </diagram>
  <diagram id="IHO08cJrlRClQXrlGW8D" name="shell">
    <mxGraphModel dx="1290" dy="629" grid="1" gridSize="10" guides="1" tooltips="1" connect="1" arrows="1" fold="1" page="1" pageScale="1" pageWidth="827" pageHeight="1169" math="0" shadow="0">
      <root>
        <mxCell id="0" />
        <mxCell id="1" parent="0" />
        <mxCell id="TX1v-eI2snjFMby2-VUG-1" style="edgeStyle=orthogonalEdgeStyle;rounded=0;orthogonalLoop=1;jettySize=auto;html=1;exitX=0.5;exitY=0.5;exitDx=0;exitDy=20;exitPerimeter=0;entryX=0.5;entryY=0;entryDx=0;entryDy=0;" parent="1" source="TX1v-eI2snjFMby2-VUG-2" edge="1">
          <mxGeometry relative="1" as="geometry">
            <mxPoint x="340" y="130" as="targetPoint" />
          </mxGeometry>
        </mxCell>
        <mxCell id="TX1v-eI2snjFMby2-VUG-2" value="Начало" style="html=1;dashed=0;whiteSpace=wrap;shape=mxgraph.dfd.start" parent="1" vertex="1">
          <mxGeometry x="280" y="65" width="120" height="40" as="geometry" />
        </mxCell>
        <mxCell id="TX1v-eI2snjFMby2-VUG-3" value="" style="strokeWidth=1;html=1;shape=mxgraph.flowchart.annotation_2;align=left;labelPosition=right;pointerEvents=1;" parent="1" vertex="1">
          <mxGeometry x="409" y="45" width="19" height="80" as="geometry" />
        </mxCell>
        <mxCell id="TX1v-eI2snjFMby2-VUG-4" value="" style="endArrow=none;dashed=1;html=1;rounded=0;entryX=0;entryY=0.5;entryDx=0;entryDy=0;entryPerimeter=0;" parent="1" target="TX1v-eI2snjFMby2-VUG-3" edge="1">
          <mxGeometry width="50" height="50" relative="1" as="geometry">
            <mxPoint x="399" y="85" as="sourcePoint" />
            <mxPoint x="409" y="85" as="targetPoint" />
          </mxGeometry>
        </mxCell>
        <mxCell id="TX1v-eI2snjFMby2-VUG-5" style="edgeStyle=orthogonalEdgeStyle;rounded=0;orthogonalLoop=1;jettySize=auto;html=1;exitX=0.5;exitY=1;exitDx=0;exitDy=0;entryX=0.5;entryY=0;entryDx=0;entryDy=0;" parent="1" source="TX1v-eI2snjFMby2-VUG-6" edge="1">
          <mxGeometry relative="1" as="geometry">
            <mxPoint x="340" y="220" as="targetPoint" />
          </mxGeometry>
        </mxCell>
        <mxCell id="TX1v-eI2snjFMby2-VUG-6" value="Определить&lt;br&gt;переменные&lt;br&gt;step, tmp" style="rounded=0;whiteSpace=wrap;html=1;" parent="1" vertex="1">
          <mxGeometry x="280" y="130" width="120" height="60" as="geometry" />
        </mxCell>
        <mxCell id="TX1v-eI2snjFMby2-VUG-11" style="edgeStyle=orthogonalEdgeStyle;rounded=0;orthogonalLoop=1;jettySize=auto;html=1;exitX=0.5;exitY=0;exitDx=0;exitDy=0;entryX=0.5;entryY=0;entryDx=0;entryDy=0;" parent="1" source="TX1v-eI2snjFMby2-VUG-12" target="TX1v-eI2snjFMby2-VUG-24" edge="1">
          <mxGeometry relative="1" as="geometry" />
        </mxCell>
        <mxCell id="TX1v-eI2snjFMby2-VUG-12" value="" style="shape=loopLimit;whiteSpace=wrap;html=1;size=20;rotation=-180;" parent="1" vertex="1">
          <mxGeometry x="280" y="770" width="120" height="60" as="geometry" />
        </mxCell>
        <mxCell id="P7c0_6H1i8CZl6J2HYgP-2" style="edgeStyle=orthogonalEdgeStyle;rounded=0;orthogonalLoop=1;jettySize=auto;html=1;exitX=0.5;exitY=1;exitDx=0;exitDy=0;entryX=0.5;entryY=0;entryDx=0;entryDy=0;" parent="1" source="TX1v-eI2snjFMby2-VUG-16" target="P7c0_6H1i8CZl6J2HYgP-1" edge="1">
          <mxGeometry relative="1" as="geometry" />
        </mxCell>
        <mxCell id="TX1v-eI2snjFMby2-VUG-16" value="step = c / 2 ... c &amp;gt; 0, step = step / 2&amp;nbsp;" style="shape=loopLimit;whiteSpace=wrap;html=1;" parent="1" vertex="1">
          <mxGeometry x="279" y="220" width="120" height="60" as="geometry" />
        </mxCell>
        <mxCell id="TX1v-eI2snjFMby2-VUG-17" style="edgeStyle=orthogonalEdgeStyle;rounded=0;orthogonalLoop=1;jettySize=auto;html=1;exitX=1;exitY=0.5;exitDx=0;exitDy=0;entryX=0.5;entryY=0;entryDx=0;entryDy=0;" parent="1" source="TX1v-eI2snjFMby2-VUG-19" target="TX1v-eI2snjFMby2-VUG-21" edge="1">
          <mxGeometry relative="1" as="geometry" />
        </mxCell>
        <mxCell id="UBXt0p6A0plx39KcYZQf-7" style="edgeStyle=orthogonalEdgeStyle;rounded=0;orthogonalLoop=1;jettySize=auto;html=1;exitX=0;exitY=0.5;exitDx=0;exitDy=0;entryX=0.5;entryY=0;entryDx=0;entryDy=0;" parent="1" source="TX1v-eI2snjFMby2-VUG-19" target="UBXt0p6A0plx39KcYZQf-6" edge="1">
          <mxGeometry relative="1" as="geometry" />
        </mxCell>
        <mxCell id="TX1v-eI2snjFMby2-VUG-19" value="tmp &amp;lt; &lt;br&gt;to_sort[j - step]" style="rhombus;whiteSpace=wrap;html=1;" parent="1" vertex="1">
          <mxGeometry x="280" y="580" width="120" height="90" as="geometry" />
        </mxCell>
        <mxCell id="UBXt0p6A0plx39KcYZQf-9" style="edgeStyle=orthogonalEdgeStyle;rounded=0;orthogonalLoop=1;jettySize=auto;html=1;exitX=0.5;exitY=1;exitDx=0;exitDy=0;entryX=0.5;entryY=1;entryDx=0;entryDy=0;" parent="1" source="TX1v-eI2snjFMby2-VUG-21" target="TX1v-eI2snjFMby2-VUG-12" edge="1">
          <mxGeometry relative="1" as="geometry" />
        </mxCell>
        <mxCell id="TX1v-eI2snjFMby2-VUG-21" value="to_sort[ j ] = &lt;br&gt;to_sort[ j - step ];" style="rounded=0;whiteSpace=wrap;html=1;" parent="1" vertex="1">
          <mxGeometry x="399" y="660" width="120" height="60" as="geometry" />
        </mxCell>
        <mxCell id="TX1v-eI2snjFMby2-VUG-24" value="A" style="ellipse;whiteSpace=wrap;html=1;" parent="1" vertex="1">
          <mxGeometry x="305" y="910" width="70" height="70" as="geometry" />
        </mxCell>
        <mxCell id="TX1v-eI2snjFMby2-VUG-25" value="Да" style="text;html=1;strokeColor=none;fillColor=none;align=center;verticalAlign=middle;whiteSpace=wrap;rounded=0;" parent="1" vertex="1">
          <mxGeometry x="409" y="595" width="60" height="30" as="geometry" />
        </mxCell>
        <mxCell id="TX1v-eI2snjFMby2-VUG-26" value="to_sort[ ]&lt;br&gt;c - длина массива" style="text;html=1;strokeColor=none;fillColor=none;align=left;verticalAlign=middle;whiteSpace=wrap;rounded=0;" parent="1" vertex="1">
          <mxGeometry x="419" y="70" width="131" height="30" as="geometry" />
        </mxCell>
        <mxCell id="TX1v-eI2snjFMby2-VUG-27" value="j = j - step" style="text;html=1;strokeColor=none;fillColor=none;align=center;verticalAlign=middle;whiteSpace=wrap;rounded=0;" parent="1" vertex="1">
          <mxGeometry x="310" y="785" width="60" height="30" as="geometry" />
        </mxCell>
        <mxCell id="P7c0_6H1i8CZl6J2HYgP-4" style="edgeStyle=orthogonalEdgeStyle;rounded=0;orthogonalLoop=1;jettySize=auto;html=1;exitX=0.5;exitY=1;exitDx=0;exitDy=0;entryX=0.5;entryY=0;entryDx=0;entryDy=0;" parent="1" source="P7c0_6H1i8CZl6J2HYgP-1" target="P7c0_6H1i8CZl6J2HYgP-3" edge="1">
          <mxGeometry relative="1" as="geometry" />
        </mxCell>
        <mxCell id="P7c0_6H1i8CZl6J2HYgP-1" value="i = step ... i &amp;lt; c" style="shape=loopLimit;whiteSpace=wrap;html=1;" parent="1" vertex="1">
          <mxGeometry x="279" y="310" width="120" height="60" as="geometry" />
        </mxCell>
        <mxCell id="P7c0_6H1i8CZl6J2HYgP-6" style="edgeStyle=orthogonalEdgeStyle;rounded=0;orthogonalLoop=1;jettySize=auto;html=1;exitX=0.5;exitY=1;exitDx=0;exitDy=0;entryX=0.5;entryY=0;entryDx=0;entryDy=0;" parent="1" source="P7c0_6H1i8CZl6J2HYgP-3" edge="1">
          <mxGeometry relative="1" as="geometry">
            <mxPoint x="340" y="490" as="targetPoint" />
          </mxGeometry>
        </mxCell>
        <mxCell id="P7c0_6H1i8CZl6J2HYgP-3" value="tmp = to_sort[ i ]" style="rounded=0;whiteSpace=wrap;html=1;" parent="1" vertex="1">
          <mxGeometry x="279" y="400" width="120" height="60" as="geometry" />
        </mxCell>
        <mxCell id="UBXt0p6A0plx39KcYZQf-1" style="edgeStyle=orthogonalEdgeStyle;rounded=0;orthogonalLoop=1;jettySize=auto;html=1;exitX=0.5;exitY=1;exitDx=0;exitDy=0;entryX=0.5;entryY=0;entryDx=0;entryDy=0;" parent="1" target="TX1v-eI2snjFMby2-VUG-19" edge="1">
          <mxGeometry relative="1" as="geometry">
            <mxPoint x="340" y="550" as="sourcePoint" />
          </mxGeometry>
        </mxCell>
        <mxCell id="UBXt0p6A0plx39KcYZQf-3" value="j = i ... j &amp;gt;= step,&lt;br&gt;j = j - step" style="shape=loopLimit;whiteSpace=wrap;html=1;" parent="1" vertex="1">
          <mxGeometry x="280" y="490" width="120" height="60" as="geometry" />
        </mxCell>
        <mxCell id="UBXt0p6A0plx39KcYZQf-8" style="edgeStyle=orthogonalEdgeStyle;rounded=0;orthogonalLoop=1;jettySize=auto;html=1;exitX=0.5;exitY=1;exitDx=0;exitDy=0;entryX=0.5;entryY=0;entryDx=0;entryDy=0;" parent="1" source="UBXt0p6A0plx39KcYZQf-6" target="TX1v-eI2snjFMby2-VUG-24" edge="1">
          <mxGeometry relative="1" as="geometry">
            <Array as="points">
              <mxPoint x="230" y="860" />
              <mxPoint x="340" y="860" />
            </Array>
          </mxGeometry>
        </mxCell>
        <mxCell id="UBXt0p6A0plx39KcYZQf-6" value="break" style="rounded=0;whiteSpace=wrap;html=1;" parent="1" vertex="1">
          <mxGeometry x="170" y="660" width="120" height="60" as="geometry" />
        </mxCell>
        <mxCell id="vMlbD6Fpb0xLboQujvc2-1" style="edgeStyle=orthogonalEdgeStyle;rounded=0;orthogonalLoop=1;jettySize=auto;html=1;exitX=0.5;exitY=1;exitDx=0;exitDy=0;entryX=0.5;entryY=0;entryDx=0;entryDy=0;" parent="1" source="UBXt0p6A0plx39KcYZQf-10" target="UBXt0p6A0plx39KcYZQf-11" edge="1">
          <mxGeometry relative="1" as="geometry" />
        </mxCell>
        <mxCell id="UBXt0p6A0plx39KcYZQf-10" value="A" style="ellipse;whiteSpace=wrap;html=1;" parent="1" vertex="1">
          <mxGeometry x="575" y="60" width="70" height="70" as="geometry" />
        </mxCell>
        <mxCell id="vMlbD6Fpb0xLboQujvc2-6" style="edgeStyle=orthogonalEdgeStyle;rounded=0;orthogonalLoop=1;jettySize=auto;html=1;exitX=0.5;exitY=1;exitDx=0;exitDy=0;entryX=0.5;entryY=1;entryDx=0;entryDy=0;" parent="1" source="UBXt0p6A0plx39KcYZQf-11" target="vMlbD6Fpb0xLboQujvc2-2" edge="1">
          <mxGeometry relative="1" as="geometry" />
        </mxCell>
        <mxCell id="UBXt0p6A0plx39KcYZQf-11" value="to_sort[ j ] = tmp" style="rounded=0;whiteSpace=wrap;html=1;" parent="1" vertex="1">
          <mxGeometry x="550" y="170" width="120" height="60" as="geometry" />
        </mxCell>
        <mxCell id="vMlbD6Fpb0xLboQujvc2-7" style="edgeStyle=orthogonalEdgeStyle;rounded=0;orthogonalLoop=1;jettySize=auto;html=1;exitX=0.5;exitY=0;exitDx=0;exitDy=0;entryX=0.5;entryY=1;entryDx=0;entryDy=0;" parent="1" source="vMlbD6Fpb0xLboQujvc2-2" target="vMlbD6Fpb0xLboQujvc2-4" edge="1">
          <mxGeometry relative="1" as="geometry" />
        </mxCell>
        <mxCell id="vMlbD6Fpb0xLboQujvc2-2" value="" style="shape=loopLimit;whiteSpace=wrap;html=1;size=20;rotation=-180;" parent="1" vertex="1">
          <mxGeometry x="550" y="260" width="120" height="60" as="geometry" />
        </mxCell>
        <mxCell id="vMlbD6Fpb0xLboQujvc2-3" value="i++" style="text;html=1;strokeColor=none;fillColor=none;align=center;verticalAlign=middle;whiteSpace=wrap;rounded=0;" parent="1" vertex="1">
          <mxGeometry x="580" y="275" width="60" height="30" as="geometry" />
        </mxCell>
        <mxCell id="FIohxcnxvFIaPuc_pNRw-2" style="edgeStyle=orthogonalEdgeStyle;rounded=0;orthogonalLoop=1;jettySize=auto;html=1;exitX=0.5;exitY=0;exitDx=0;exitDy=0;entryX=0.5;entryY=0.5;entryDx=0;entryDy=-20;entryPerimeter=0;" parent="1" source="vMlbD6Fpb0xLboQujvc2-4" target="FIohxcnxvFIaPuc_pNRw-1" edge="1">
          <mxGeometry relative="1" as="geometry" />
        </mxCell>
        <mxCell id="vMlbD6Fpb0xLboQujvc2-4" value="" style="shape=loopLimit;whiteSpace=wrap;html=1;size=20;rotation=-180;" parent="1" vertex="1">
          <mxGeometry x="550" y="350" width="120" height="60" as="geometry" />
        </mxCell>
        <mxCell id="vMlbD6Fpb0xLboQujvc2-5" value="step = step / 2&amp;nbsp;" style="text;html=1;strokeColor=none;fillColor=none;align=center;verticalAlign=middle;whiteSpace=wrap;rounded=0;" parent="1" vertex="1">
          <mxGeometry x="565" y="365" width="90" height="30" as="geometry" />
        </mxCell>
        <mxCell id="FIohxcnxvFIaPuc_pNRw-1" value="Конец" style="html=1;dashed=0;whiteSpace=wrap;shape=mxgraph.dfd.start" parent="1" vertex="1">
          <mxGeometry x="550" y="440" width="120" height="40" as="geometry" />
        </mxCell>
      </root>
    </mxGraphModel>
  </diagram>
  <diagram id="py8YSNiwhD4jaekkJNEu" name="smooth">
    <mxGraphModel dx="1290" dy="629" grid="1" gridSize="10" guides="1" tooltips="1" connect="1" arrows="1" fold="1" page="1" pageScale="1" pageWidth="827" pageHeight="1169" math="0" shadow="0">
      <root>
        <mxCell id="0" />
        <mxCell id="1" parent="0" />
        <mxCell id="q8bOQXo3znpWhRQnNkot-1" style="edgeStyle=orthogonalEdgeStyle;rounded=0;orthogonalLoop=1;jettySize=auto;html=1;exitX=0.5;exitY=0.5;exitDx=0;exitDy=20;exitPerimeter=0;entryX=0.5;entryY=0;entryDx=0;entryDy=0;" parent="1" source="q8bOQXo3znpWhRQnNkot-2" edge="1">
          <mxGeometry relative="1" as="geometry">
            <mxPoint x="180" y="105" as="targetPoint" />
          </mxGeometry>
        </mxCell>
        <mxCell id="q8bOQXo3znpWhRQnNkot-2" value="Начало" style="html=1;dashed=0;whiteSpace=wrap;shape=mxgraph.dfd.start" parent="1" vertex="1">
          <mxGeometry x="120" y="40" width="120" height="40" as="geometry" />
        </mxCell>
        <mxCell id="q8bOQXo3znpWhRQnNkot-3" value="" style="strokeWidth=1;html=1;shape=mxgraph.flowchart.annotation_2;align=left;labelPosition=right;pointerEvents=1;" parent="1" vertex="1">
          <mxGeometry x="249" y="20" width="19" height="80" as="geometry" />
        </mxCell>
        <mxCell id="q8bOQXo3znpWhRQnNkot-4" value="" style="endArrow=none;dashed=1;html=1;rounded=0;entryX=0;entryY=0.5;entryDx=0;entryDy=0;entryPerimeter=0;" parent="1" target="q8bOQXo3znpWhRQnNkot-3" edge="1">
          <mxGeometry width="50" height="50" relative="1" as="geometry">
            <mxPoint x="239" y="60" as="sourcePoint" />
            <mxPoint x="249" y="60" as="targetPoint" />
          </mxGeometry>
        </mxCell>
        <mxCell id="q8bOQXo3znpWhRQnNkot-5" style="edgeStyle=orthogonalEdgeStyle;rounded=0;orthogonalLoop=1;jettySize=auto;html=1;exitX=0.5;exitY=1;exitDx=0;exitDy=0;entryX=0.5;entryY=0;entryDx=0;entryDy=0;" parent="1" source="q8bOQXo3znpWhRQnNkot-6" target="q8bOQXo3znpWhRQnNkot-10" edge="1">
          <mxGeometry relative="1" as="geometry">
            <mxPoint x="180" y="195" as="targetPoint" />
          </mxGeometry>
        </mxCell>
        <mxCell id="q8bOQXo3znpWhRQnNkot-6" value="Определить&lt;br&gt;переменную gap = 1" style="rounded=0;whiteSpace=wrap;html=1;" parent="1" vertex="1">
          <mxGeometry x="120" y="105" width="120" height="60" as="geometry" />
        </mxCell>
        <mxCell id="q8bOQXo3znpWhRQnNkot-9" style="edgeStyle=orthogonalEdgeStyle;rounded=0;orthogonalLoop=1;jettySize=auto;html=1;exitX=0.5;exitY=1;exitDx=0;exitDy=0;entryX=0.5;entryY=0;entryDx=0;entryDy=0;" parent="1" source="q8bOQXo3znpWhRQnNkot-10" target="q8bOQXo3znpWhRQnNkot-14" edge="1">
          <mxGeometry relative="1" as="geometry" />
        </mxCell>
        <mxCell id="q8bOQXo3znpWhRQnNkot-10" value="while&lt;br&gt;gap &amp;lt; c" style="shape=loopLimit;whiteSpace=wrap;html=1;" parent="1" vertex="1">
          <mxGeometry x="120" y="200" width="120" height="60" as="geometry" />
        </mxCell>
        <mxCell id="q8bOQXo3znpWhRQnNkot-53" style="edgeStyle=orthogonalEdgeStyle;rounded=0;orthogonalLoop=1;jettySize=auto;html=1;exitX=0.5;exitY=1;exitDx=0;exitDy=0;entryX=0.5;entryY=1;entryDx=0;entryDy=0;" parent="1" source="q8bOQXo3znpWhRQnNkot-14" target="q8bOQXo3znpWhRQnNkot-51" edge="1">
          <mxGeometry relative="1" as="geometry" />
        </mxCell>
        <mxCell id="q8bOQXo3znpWhRQnNkot-14" value="gap = gap * 3 + 1;" style="rounded=0;whiteSpace=wrap;html=1;" parent="1" vertex="1">
          <mxGeometry x="119" y="290" width="120" height="60" as="geometry" />
        </mxCell>
        <mxCell id="q8bOQXo3znpWhRQnNkot-56" style="edgeStyle=orthogonalEdgeStyle;rounded=0;orthogonalLoop=1;jettySize=auto;html=1;exitX=0.5;exitY=1;exitDx=0;exitDy=0;entryX=0.5;entryY=0;entryDx=0;entryDy=0;" parent="1" source="q8bOQXo3znpWhRQnNkot-16" target="q8bOQXo3znpWhRQnNkot-55" edge="1">
          <mxGeometry relative="1" as="geometry" />
        </mxCell>
        <mxCell id="q8bOQXo3znpWhRQnNkot-16" value="while&lt;br&gt;gap &amp;gt; 1" style="shape=loopLimit;whiteSpace=wrap;html=1;" parent="1" vertex="1">
          <mxGeometry x="119" y="465" width="120" height="60" as="geometry" />
        </mxCell>
        <mxCell id="q8bOQXo3znpWhRQnNkot-24" value="A" style="ellipse;whiteSpace=wrap;html=1;" parent="1" vertex="1">
          <mxGeometry x="144" y="820" width="70" height="70" as="geometry" />
        </mxCell>
        <mxCell id="q8bOQXo3znpWhRQnNkot-63" style="edgeStyle=orthogonalEdgeStyle;rounded=0;orthogonalLoop=1;jettySize=auto;html=1;exitX=0.5;exitY=1;exitDx=0;exitDy=0;entryX=0.5;entryY=0;entryDx=0;entryDy=0;" parent="1" source="q8bOQXo3znpWhRQnNkot-26" target="q8bOQXo3znpWhRQnNkot-35" edge="1">
          <mxGeometry relative="1" as="geometry" />
        </mxCell>
        <mxCell id="q8bOQXo3znpWhRQnNkot-26" value="A" style="ellipse;whiteSpace=wrap;html=1;" parent="1" vertex="1">
          <mxGeometry x="415" y="40" width="70" height="70" as="geometry" />
        </mxCell>
        <mxCell id="q8bOQXo3znpWhRQnNkot-30" value="to_sort[ ]&lt;br&gt;c - длина массива" style="text;html=1;strokeColor=none;fillColor=none;align=left;verticalAlign=middle;whiteSpace=wrap;rounded=0;" parent="1" vertex="1">
          <mxGeometry x="259" y="45" width="131" height="30" as="geometry" />
        </mxCell>
        <mxCell id="q8bOQXo3znpWhRQnNkot-32" style="edgeStyle=orthogonalEdgeStyle;rounded=0;orthogonalLoop=1;jettySize=auto;html=1;exitX=0.5;exitY=0;exitDx=0;exitDy=0;entryX=0.5;entryY=0;entryDx=0;entryDy=0;" parent="1" source="q8bOQXo3znpWhRQnNkot-33" target="q8bOQXo3znpWhRQnNkot-46" edge="1">
          <mxGeometry relative="1" as="geometry" />
        </mxCell>
        <mxCell id="q8bOQXo3znpWhRQnNkot-33" value="" style="shape=loopLimit;whiteSpace=wrap;html=1;size=20;rotation=-180;" parent="1" vertex="1">
          <mxGeometry x="390" y="330" width="120" height="60" as="geometry" />
        </mxCell>
        <mxCell id="q8bOQXo3znpWhRQnNkot-65" style="edgeStyle=orthogonalEdgeStyle;rounded=0;orthogonalLoop=1;jettySize=auto;html=1;exitX=0.5;exitY=1;exitDx=0;exitDy=0;entryX=0.5;entryY=0;entryDx=0;entryDy=0;" parent="1" source="q8bOQXo3znpWhRQnNkot-35" target="q8bOQXo3znpWhRQnNkot-64" edge="1">
          <mxGeometry relative="1" as="geometry" />
        </mxCell>
        <mxCell id="q8bOQXo3znpWhRQnNkot-35" value="j = i ... j &amp;gt;= gap and arr[j - gap] &amp;gt; temp" style="shape=loopLimit;whiteSpace=wrap;html=1;" parent="1" vertex="1">
          <mxGeometry x="390" y="145" width="120" height="60" as="geometry" />
        </mxCell>
        <mxCell id="q8bOQXo3znpWhRQnNkot-44" value="j = j - gap" style="text;html=1;strokeColor=none;fillColor=none;align=center;verticalAlign=middle;whiteSpace=wrap;rounded=0;" parent="1" vertex="1">
          <mxGeometry x="420" y="345" width="60" height="30" as="geometry" />
        </mxCell>
        <mxCell id="q8bOQXo3znpWhRQnNkot-45" style="edgeStyle=orthogonalEdgeStyle;rounded=0;orthogonalLoop=1;jettySize=auto;html=1;exitX=0.5;exitY=1;exitDx=0;exitDy=0;entryX=0.5;entryY=1;entryDx=0;entryDy=0;" parent="1" source="q8bOQXo3znpWhRQnNkot-46" target="q8bOQXo3znpWhRQnNkot-49" edge="1">
          <mxGeometry relative="1" as="geometry" />
        </mxCell>
        <mxCell id="q8bOQXo3znpWhRQnNkot-46" value="arr[ j ] = temp" style="rounded=0;whiteSpace=wrap;html=1;" parent="1" vertex="1">
          <mxGeometry x="390" y="420" width="120" height="60" as="geometry" />
        </mxCell>
        <mxCell id="q8bOQXo3znpWhRQnNkot-47" value="Конец" style="html=1;dashed=0;whiteSpace=wrap;shape=mxgraph.dfd.start" parent="1" vertex="1">
          <mxGeometry x="390" y="685" width="120" height="40" as="geometry" />
        </mxCell>
        <mxCell id="q8bOQXo3znpWhRQnNkot-70" style="edgeStyle=orthogonalEdgeStyle;rounded=0;orthogonalLoop=1;jettySize=auto;html=1;exitX=0.5;exitY=0;exitDx=0;exitDy=0;entryX=0.5;entryY=1;entryDx=0;entryDy=0;" parent="1" source="q8bOQXo3znpWhRQnNkot-49" target="q8bOQXo3znpWhRQnNkot-68" edge="1">
          <mxGeometry relative="1" as="geometry" />
        </mxCell>
        <mxCell id="q8bOQXo3znpWhRQnNkot-49" value="" style="shape=loopLimit;whiteSpace=wrap;html=1;size=20;rotation=-180;" parent="1" vertex="1">
          <mxGeometry x="390" y="510" width="120" height="60" as="geometry" />
        </mxCell>
        <mxCell id="q8bOQXo3znpWhRQnNkot-50" value="i++" style="text;html=1;strokeColor=none;fillColor=none;align=center;verticalAlign=middle;whiteSpace=wrap;rounded=0;" parent="1" vertex="1">
          <mxGeometry x="420" y="525" width="60" height="30" as="geometry" />
        </mxCell>
        <mxCell id="q8bOQXo3znpWhRQnNkot-54" style="edgeStyle=orthogonalEdgeStyle;rounded=0;orthogonalLoop=1;jettySize=auto;html=1;exitX=0.5;exitY=0;exitDx=0;exitDy=0;entryX=0.5;entryY=0;entryDx=0;entryDy=0;" parent="1" source="q8bOQXo3znpWhRQnNkot-51" target="q8bOQXo3znpWhRQnNkot-16" edge="1">
          <mxGeometry relative="1" as="geometry" />
        </mxCell>
        <mxCell id="q8bOQXo3znpWhRQnNkot-51" value="" style="shape=loopLimit;whiteSpace=wrap;html=1;size=20;rotation=-180;" parent="1" vertex="1">
          <mxGeometry x="119" y="380" width="120" height="60" as="geometry" />
        </mxCell>
        <mxCell id="q8bOQXo3znpWhRQnNkot-52" value="do" style="text;html=1;strokeColor=none;fillColor=none;align=center;verticalAlign=middle;whiteSpace=wrap;rounded=0;" parent="1" vertex="1">
          <mxGeometry x="149" y="395" width="60" height="30" as="geometry" />
        </mxCell>
        <mxCell id="q8bOQXo3znpWhRQnNkot-58" style="edgeStyle=orthogonalEdgeStyle;rounded=0;orthogonalLoop=1;jettySize=auto;html=1;exitX=0.5;exitY=1;exitDx=0;exitDy=0;" parent="1" source="q8bOQXo3znpWhRQnNkot-55" target="q8bOQXo3znpWhRQnNkot-57" edge="1">
          <mxGeometry relative="1" as="geometry" />
        </mxCell>
        <mxCell id="q8bOQXo3znpWhRQnNkot-55" value="gap = (gap - 1) / 3" style="rounded=0;whiteSpace=wrap;html=1;" parent="1" vertex="1">
          <mxGeometry x="119" y="555" width="120" height="60" as="geometry" />
        </mxCell>
        <mxCell id="q8bOQXo3znpWhRQnNkot-60" style="edgeStyle=orthogonalEdgeStyle;rounded=0;orthogonalLoop=1;jettySize=auto;html=1;exitX=0.5;exitY=1;exitDx=0;exitDy=0;entryX=0.5;entryY=0;entryDx=0;entryDy=0;" parent="1" source="q8bOQXo3znpWhRQnNkot-57" target="q8bOQXo3znpWhRQnNkot-59" edge="1">
          <mxGeometry relative="1" as="geometry" />
        </mxCell>
        <mxCell id="q8bOQXo3znpWhRQnNkot-57" value="i = gap ... i &amp;lt; c&amp;nbsp;" style="shape=loopLimit;whiteSpace=wrap;html=1;" parent="1" vertex="1">
          <mxGeometry x="119" y="645" width="120" height="60" as="geometry" />
        </mxCell>
        <mxCell id="q8bOQXo3znpWhRQnNkot-61" style="edgeStyle=orthogonalEdgeStyle;rounded=0;orthogonalLoop=1;jettySize=auto;html=1;exitX=0.5;exitY=1;exitDx=0;exitDy=0;entryX=0.5;entryY=0;entryDx=0;entryDy=0;" parent="1" source="q8bOQXo3znpWhRQnNkot-59" target="q8bOQXo3znpWhRQnNkot-24" edge="1">
          <mxGeometry relative="1" as="geometry" />
        </mxCell>
        <mxCell id="q8bOQXo3znpWhRQnNkot-59" value="temp = arr[ i ]" style="rounded=0;whiteSpace=wrap;html=1;" parent="1" vertex="1">
          <mxGeometry x="119" y="730" width="120" height="60" as="geometry" />
        </mxCell>
        <mxCell id="q8bOQXo3znpWhRQnNkot-66" style="edgeStyle=orthogonalEdgeStyle;rounded=0;orthogonalLoop=1;jettySize=auto;html=1;exitX=0.5;exitY=1;exitDx=0;exitDy=0;entryX=0.5;entryY=1;entryDx=0;entryDy=0;" parent="1" source="q8bOQXo3znpWhRQnNkot-64" target="q8bOQXo3znpWhRQnNkot-33" edge="1">
          <mxGeometry relative="1" as="geometry" />
        </mxCell>
        <mxCell id="q8bOQXo3znpWhRQnNkot-64" value="arr[ j ] = arr[ j - gap ];" style="rounded=0;whiteSpace=wrap;html=1;" parent="1" vertex="1">
          <mxGeometry x="390" y="235" width="120" height="60" as="geometry" />
        </mxCell>
        <mxCell id="q8bOQXo3znpWhRQnNkot-71" style="edgeStyle=orthogonalEdgeStyle;rounded=0;orthogonalLoop=1;jettySize=auto;html=1;exitX=0.5;exitY=0;exitDx=0;exitDy=0;entryX=0.5;entryY=0.5;entryDx=0;entryDy=-20;entryPerimeter=0;" parent="1" source="q8bOQXo3znpWhRQnNkot-68" target="q8bOQXo3znpWhRQnNkot-47" edge="1">
          <mxGeometry relative="1" as="geometry" />
        </mxCell>
        <mxCell id="q8bOQXo3znpWhRQnNkot-68" value="" style="shape=loopLimit;whiteSpace=wrap;html=1;size=20;rotation=-180;" parent="1" vertex="1">
          <mxGeometry x="390" y="600" width="120" height="60" as="geometry" />
        </mxCell>
        <mxCell id="q8bOQXo3znpWhRQnNkot-69" value="do" style="text;html=1;strokeColor=none;fillColor=none;align=center;verticalAlign=middle;whiteSpace=wrap;rounded=0;" parent="1" vertex="1">
          <mxGeometry x="420" y="615" width="60" height="30" as="geometry" />
        </mxCell>
      </root>
    </mxGraphModel>
  </diagram>
</mxfile>
